STARTFONT 2.1
FONT -FontForge-Henny Penny-Book-R-Normal--16-160-72-72-P-91-ISO10646-1
SIZE 16 72 72
FONTBOUNDINGBOX 22 30 -2 -11
COMMENT "Generated by fontforge, http://fontforge.sourceforge.net"
COMMENT "Copyright (c) 2012, Brownfox (gayaneh.b@gmail.com), with Reserved Font Name "Henny Penny""
STARTPROPERTIES 39
FOUNDRY "FontForge"
FAMILY_NAME "Henny Penny"
WEIGHT_NAME "Book"
SLANT "R"
SETWIDTH_NAME "Normal"
ADD_STYLE_NAME ""
PIXEL_SIZE 16
POINT_SIZE 160
RESOLUTION_X 72
RESOLUTION_Y 72
SPACING "P"
AVERAGE_WIDTH 91
CHARSET_REGISTRY "ISO10646"
CHARSET_ENCODING "1"
FONTNAME_REGISTRY ""
CHARSET_COLLECTIONS "ISO10646-1"
FONT_NAME "HennyPenny-Regular"
FACE_NAME "Henny Penny"
COPYRIGHT "Copyright (c) 2012, Brownfox (gayaneh.b@gmail.com), with Reserved Font Name "Henny Penny""
FONT_VERSION "1.001"
FONT_ASCENT 13
FONT_DESCENT 3
UNDERLINE_POSITION -2
UNDERLINE_THICKNESS 1
X_HEIGHT 9
CAP_HEIGHT 12
RAW_ASCENT 799
RAW_DESCENT 200
NORM_SPACE 4
RELATIVE_WEIGHT 40
RELATIVE_SETWIDTH 50
SUPERSCRIPT_X 0
SUPERSCRIPT_Y 5
SUPERSCRIPT_SIZE 9
SUBSCRIPT_X 0
SUBSCRIPT_Y 1
SUBSCRIPT_SIZE 9
AVG_LOWERCASE_WIDTH 81
AVG_UPPERCASE_WIDTH 116
ENDPROPERTIES
CHARS 233
STARTCHAR space
ENCODING 32
SWIDTH 270 0
DWIDTH 4 0
BBX 1 1 0 0
BITMAP
00
ENDCHAR
STARTCHAR exclam
ENCODING 33
SWIDTH 249 0
DWIDTH 4 0
BBX 2 16 1 -1
BITMAP
C0
C0
C0
C0
C0
40
40
40
40
40
80
80
00
00
C0
C0
ENDCHAR
STARTCHAR quotedbl
ENCODING 34
SWIDTH 292 0
DWIDTH 5 0
BBX 3 6 1 7
BITMAP
A0
A0
A0
A0
A0
A0
ENDCHAR
STARTCHAR numbersign
ENCODING 35
SWIDTH 1030 0
DWIDTH 17 0
BBX 15 18 1 -5
BITMAP
0100
0100
0140
0240
0280
FFF8
0486
0900
0910
0FE0
F200
1400
2400
2800
2800
0800
1000
1000
ENDCHAR
STARTCHAR dollar
ENCODING 36
SWIDTH 799 0
DWIDTH 13 0
BBX 10 18 1 -3
BITMAP
0200
0240
0F80
1A80
1A80
1A80
1C00
0E00
0700
0700
4980
4980
4980
6980
7900
9E00
1000
1000
ENDCHAR
STARTCHAR percent
ENCODING 37
SWIDTH 789 0
DWIDTH 13 0
BBX 13 15 0 0
BITMAP
3820
6440
6440
6480
6500
3900
0200
0400
05E0
0B10
1218
2210
2330
41E0
8000
ENDCHAR
STARTCHAR ampersand
ENCODING 38
SWIDTH 773 0
DWIDTH 12 0
BBX 12 15 1 -1
BITMAP
1C00
3200
2200
2400
2C00
3840
30C0
7B40
D840
CC40
CE40
C790
63A0
3FE0
0040
ENDCHAR
STARTCHAR quotesingle
ENCODING 39
SWIDTH 174 0
DWIDTH 3 0
BBX 1 5 1 7
BITMAP
80
80
80
80
80
ENDCHAR
STARTCHAR parenleft
ENCODING 40
SWIDTH 431 0
DWIDTH 7 0
BBX 7 23 0 -7
BITMAP
10
20
20
40
40
40
C0
C0
C0
C0
C0
C0
C0
C0
40
60
60
20
30
18
08
04
02
ENDCHAR
STARTCHAR parenright
ENCODING 41
SWIDTH 443 0
DWIDTH 7 0
BBX 7 16 0 -4
BITMAP
60
10
18
0C
04
06
06
06
06
06
04
0C
08
10
20
C0
ENDCHAR
STARTCHAR asterisk
ENCODING 42
SWIDTH 490 0
DWIDTH 8 0
BBX 6 7 1 8
BITMAP
20
30
14
D8
30
68
4C
ENDCHAR
STARTCHAR plus
ENCODING 43
SWIDTH 440 0
DWIDTH 7 0
BBX 6 9 1 1
BITMAP
10
10
10
10
FC
10
10
10
10
ENDCHAR
STARTCHAR comma
ENCODING 44
SWIDTH 251 0
DWIDTH 4 0
BBX 2 5 1 -2
BITMAP
C0
C0
40
80
80
ENDCHAR
STARTCHAR hyphen
ENCODING 45
SWIDTH 436 0
DWIDTH 7 0
BBX 5 1 1 3
BITMAP
F8
ENDCHAR
STARTCHAR period
ENCODING 46
SWIDTH 238 0
DWIDTH 4 0
BBX 2 3 1 -1
BITMAP
C0
C0
C0
ENDCHAR
STARTCHAR slash
ENCODING 47
SWIDTH 690 0
DWIDTH 11 0
BBX 11 15 0 0
BITMAP
0020
0040
0040
0080
0100
0100
0200
0400
0800
0800
1000
2000
4000
4000
8000
ENDCHAR
STARTCHAR zero
ENCODING 48
SWIDTH 723 0
DWIDTH 12 0
BBX 11 12 0 1
BITMAP
1F00
2180
60C0
C040
C060
C060
C060
C060
C060
60C0
3080
1F00
ENDCHAR
STARTCHAR one
ENCODING 49
SWIDTH 505 0
DWIDTH 8 0
BBX 8 15 0 -1
BITMAP
10
10
38
78
98
18
08
08
0C
0C
0C
0C
1F
30
40
ENDCHAR
STARTCHAR two
ENCODING 50
SWIDTH 534 0
DWIDTH 9 0
BBX 8 14 0 -1
BITMAP
3C
CE
86
86
86
04
0C
18
10
60
C1
31
0E
06
ENDCHAR
STARTCHAR three
ENCODING 51
SWIDTH 511 0
DWIDTH 8 0
BBX 8 13 0 -1
BITMAP
FC
44
88
90
10
0C
06
83
83
83
83
46
3C
ENDCHAR
STARTCHAR four
ENCODING 52
SWIDTH 712 0
DWIDTH 11 0
BBX 11 16 0 -2
BITMAP
0200
0200
0600
0E00
1600
2200
4200
C200
6300
1F20
03C0
0140
0180
0180
07C0
0020
ENDCHAR
STARTCHAR five
ENCODING 53
SWIDTH 757 0
DWIDTH 12 0
BBX 12 15 0 -2
BITMAP
0310
03D0
04E0
0860
0800
0E00
0380
01C0
C0C0
80C0
80C0
80C0
8180
4300
3E00
ENDCHAR
STARTCHAR six
ENCODING 54
SWIDTH 598 0
DWIDTH 10 0
BBX 9 12 0 0
BITMAP
1F00
3080
6080
DE00
E180
C080
C080
C080
C080
6080
3100
1E00
ENDCHAR
STARTCHAR seven
ENCODING 55
SWIDTH 507 0
DWIDTH 8 0
BBX 8 13 0 0
BITMAP
01
FF
86
84
84
04
08
08
18
10
30
30
30
ENDCHAR
STARTCHAR eight
ENCODING 56
SWIDTH 476 0
DWIDTH 8 0
BBX 8 13 -1 -1
BITMAP
3C
72
62
62
7C
3C
3E
43
41
81
C1
43
3C
ENDCHAR
STARTCHAR nine
ENCODING 57
SWIDTH 601 0
DWIDTH 10 0
BBX 9 12 0 0
BITMAP
3E00
6300
C380
C180
C180
C180
6380
3F80
0180
0300
C700
3C00
ENDCHAR
STARTCHAR colon
ENCODING 58
SWIDTH 246 0
DWIDTH 4 0
BBX 2 9 1 -1
BITMAP
C0
C0
00
00
00
00
00
C0
C0
ENDCHAR
STARTCHAR semicolon
ENCODING 59
SWIDTH 266 0
DWIDTH 4 0
BBX 2 11 1 -4
BITMAP
C0
C0
00
00
00
00
C0
C0
40
80
80
ENDCHAR
STARTCHAR less
ENCODING 60
SWIDTH 522 0
DWIDTH 8 0
BBX 7 8 1 1
BITMAP
04
08
10
60
80
60
18
06
ENDCHAR
STARTCHAR equal
ENCODING 61
SWIDTH 655 0
DWIDTH 11 0
BBX 9 4 1 3
BITMAP
0F80
F000
0000
FF00
ENDCHAR
STARTCHAR greater
ENCODING 62
SWIDTH 533 0
DWIDTH 9 0
BBX 7 8 1 1
BITMAP
80
40
30
0C
06
08
10
60
ENDCHAR
STARTCHAR question
ENCODING 63
SWIDTH 564 0
DWIDTH 9 0
BBX 8 15 0 -2
BITMAP
3C
47
C3
C3
E3
E7
6E
18
20
40
40
20
00
30
30
ENDCHAR
STARTCHAR at
ENCODING 64
SWIDTH 898 0
DWIDTH 14 0
BBX 13 16 1 -5
BITMAP
07C0
1860
2010
4018
4E88
9988
B088
B088
B088
B188
9990
5E60
4180
2180
3080
0F00
ENDCHAR
STARTCHAR A
ENCODING 65
SWIDTH 784 0
DWIDTH 13 0
BBX 13 15 0 -2
BITMAP
0200
1E00
0700
0B00
0B00
0980
1180
1F80
11C0
20C0
20C0
E0E0
1060
0078
0180
ENDCHAR
STARTCHAR B
ENCODING 66
SWIDTH 685 0
DWIDTH 11 0
BBX 11 16 0 -2
BITMAP
0F80
F1C0
10C0
1080
1180
1200
1F80
18C0
1860
1860
1860
1860
1860
18C0
3F80
C000
ENDCHAR
STARTCHAR C
ENCODING 67
SWIDTH 742 0
DWIDTH 12 0
BBX 12 15 0 -2
BITMAP
0040
0040
0FC0
3060
6020
6020
E000
C000
C000
E010
E010
6020
7020
3840
0F80
ENDCHAR
STARTCHAR D
ENCODING 68
SWIDTH 726 0
DWIDTH 12 0
BBX 11 13 0 -3
BITMAP
FF80
61C0
20E0
2060
2060
2060
3060
30C0
3180
3E00
7000
4000
8000
ENDCHAR
STARTCHAR E
ENCODING 69
SWIDTH 557 0
DWIDTH 9 0
BBX 9 14 0 -1
BITMAP
0700
F900
7100
3000
3000
3400
3C00
3400
3400
3000
3000
3080
3080
FF80
ENDCHAR
STARTCHAR F
ENCODING 70
SWIDTH 533 0
DWIDTH 9 0
BBX 9 14 0 -1
BITMAP
0180
7E80
B080
3100
3100
3400
1400
1C00
1400
1400
1000
1800
1800
FC00
ENDCHAR
STARTCHAR G
ENCODING 71
SWIDTH 750 0
DWIDTH 12 0
BBX 12 12 0 0
BITMAP
0010
0F20
30E0
6040
E040
C080
C020
C3E0
E040
6040
70E0
1F00
ENDCHAR
STARTCHAR H
ENCODING 72
SWIDTH 743 0
DWIDTH 12 0
BBX 12 16 0 -2
BITMAP
8000
7C00
3030
33C0
30C0
30C0
3040
30C0
3FC0
30C0
3040
3040
3040
3040
31E0
F810
ENDCHAR
STARTCHAR I
ENCODING 73
SWIDTH 438 0
DWIDTH 7 0
BBX 9 16 -1 -3
BITMAP
FF80
3C00
1800
1800
1800
1800
1800
1800
1000
1000
1000
1000
1000
1000
3C00
C000
ENDCHAR
STARTCHAR J
ENCODING 74
SWIDTH 628 0
DWIDTH 10 0
BBX 10 18 0 -4
BITMAP
01C0
1F00
0700
0300
0300
0300
0300
0300
0300
0200
0200
0200
0200
E600
E400
8400
8800
7000
ENDCHAR
STARTCHAR K
ENCODING 75
SWIDTH 866 0
DWIDTH 14 0
BBX 14 15 0 -1
BITMAP
0A00
F1E0
6100
6200
2400
2400
3C00
3600
3608
3304
3184
31C4
3078
7800
0800
ENDCHAR
STARTCHAR L
ENCODING 76
SWIDTH 660 0
DWIDTH 11 0
BBX 10 12 0 1
BITMAP
8000
7E00
1C00
1800
1800
1800
1800
1880
1880
1840
1840
7FC0
ENDCHAR
STARTCHAR M
ENCODING 77
SWIDTH 1089 0
DWIDTH 17 0
BBX 18 13 0 -1
BITMAP
000380
000600
1E0400
0B0E00
0B9600
059600
05E600
04E200
08C300
084300
480380
F003C0
700C00
ENDCHAR
STARTCHAR N
ENCODING 78
SWIDTH 799 0
DWIDTH 13 0
BBX 13 16 0 -4
BITMAP
F0F8
3820
3C20
2E20
2720
27C0
23C0
21C0
20C0
2040
2040
2000
2000
6000
F000
0800
ENDCHAR
STARTCHAR O
ENCODING 79
SWIDTH 747 0
DWIDTH 12 0
BBX 12 12 0 0
BITMAP
1F00
31C0
60E0
C060
C070
C070
C070
C070
E060
6060
30C0
1F80
ENDCHAR
STARTCHAR P
ENCODING 80
SWIDTH 623 0
DWIDTH 10 0
BBX 10 14 0 -2
BITMAP
FF80
38C0
18C0
18C0
18C0
1980
1F00
1800
1800
1800
1800
1800
3800
FF00
ENDCHAR
STARTCHAR Q
ENCODING 81
SWIDTH 804 0
DWIDTH 13 0
BBX 19 19 0 -7
BITMAP
0F8000
30E000
607000
403000
C01800
C01800
C01800
C01800
C1D800
627000
743000
3C7000
0FB000
001800
001800
001820
001C40
000E40
000780
ENDCHAR
STARTCHAR R
ENCODING 82
SWIDTH 869 0
DWIDTH 14 0
BBX 14 12 0 -1
BITMAP
FF80
3980
30C0
10C0
1180
1380
1F00
1300
1384
1984
7CE4
0078
ENDCHAR
STARTCHAR S
ENCODING 83
SWIDTH 517 0
DWIDTH 8 0
BBX 8 15 0 -2
BITMAP
01
1D
33
31
31
38
18
0C
06
83
83
83
43
E3
9E
ENDCHAR
STARTCHAR T
ENCODING 84
SWIDTH 659 0
DWIDTH 11 0
BBX 11 17 0 -3
BITMAP
C000
FFE0
8220
8620
8640
4600
0600
0600
0600
0600
0600
0600
0600
0600
0FC0
1800
2000
ENDCHAR
STARTCHAR U
ENCODING 85
SWIDTH 690 0
DWIDTH 11 0
BBX 12 12 0 1
BITMAP
0200
1C00
F800
3BF0
30C0
3040
3040
3040
3040
1880
1880
0F00
ENDCHAR
STARTCHAR V
ENCODING 86
SWIDTH 798 0
DWIDTH 13 0
BBX 14 12 0 0
BITMAP
0600
F804
1818
0CF0
0C20
0620
0640
0340
0380
0380
0180
0100
ENDCHAR
STARTCHAR W
ENCODING 87
SWIDTH 1120 0
DWIDTH 18 0
BBX 20 14 0 -1
BITMAP
000200
0001F0
080080
100080
700100
B08100
30C200
194200
1A6400
1E7400
0C3C00
0C3800
081800
001000
ENDCHAR
STARTCHAR X
ENCODING 88
SWIDTH 868 0
DWIDTH 14 0
BBX 14 13 0 0
BITMAP
0200
FE00
1C40
0E38
0620
0340
0380
0180
06C0
0440
0860
7830
8CFC
ENDCHAR
STARTCHAR Y
ENCODING 89
SWIDTH 796 0
DWIDTH 13 0
BBX 14 16 0 -2
BITMAP
0800
F040
303C
1820
0C40
0E80
0700
0300
0300
0300
0300
0300
0300
0300
1F80
0080
ENDCHAR
STARTCHAR Z
ENCODING 90
SWIDTH 627 0
DWIDTH 10 0
BBX 9 14 1 -2
BITMAP
8000
FE00
8C00
9C00
9800
1800
1800
3000
3100
2100
2080
6180
6F80
7000
ENDCHAR
STARTCHAR bracketleft
ENCODING 91
SWIDTH 344 0
DWIDTH 6 0
BBX 5 16 0 -3
BITMAP
70
68
40
40
40
40
C0
C0
C0
C0
C0
C0
C0
C0
C0
F8
ENDCHAR
STARTCHAR backslash
ENCODING 92
SWIDTH 347 0
DWIDTH 6 0
BBX 5 17 0 -2
BITMAP
80
80
80
40
40
40
20
20
20
20
10
10
10
08
08
08
08
ENDCHAR
STARTCHAR bracketright
ENCODING 93
SWIDTH 334 0
DWIDTH 5 0
BBX 5 14 0 -3
BITMAP
70
18
18
18
18
18
18
18
18
18
18
18
30
C0
ENDCHAR
STARTCHAR asciicircum
ENCODING 94
SWIDTH 658 0
DWIDTH 11 0
BBX 9 4 1 9
BITMAP
1000
3800
6E00
8380
ENDCHAR
STARTCHAR underscore
ENCODING 95
SWIDTH 678 0
DWIDTH 11 0
BBX 9 1 1 -5
BITMAP
FF80
ENDCHAR
STARTCHAR grave
ENCODING 96
SWIDTH 278 0
DWIDTH 4 0
BBX 3 3 1 12
BITMAP
80
40
20
ENDCHAR
STARTCHAR a
ENCODING 97
SWIDTH 527 0
DWIDTH 8 0
BBX 9 11 0 -1
BITMAP
3800
4C00
4C00
6400
0400
7E00
C600
C600
C680
7E80
0300
ENDCHAR
STARTCHAR b
ENCODING 98
SWIDTH 582 0
DWIDTH 9 0
BBX 10 18 -1 0
BITMAP
1000
3000
F000
3000
1000
1000
1000
1000
1000
1000
1380
1CC0
18C0
1840
18C0
18C0
1F80
6000
ENDCHAR
STARTCHAR c
ENCODING 99
SWIDTH 437 0
DWIDTH 7 0
BBX 7 9 0 1
BITMAP
3C
4C
CC
80
84
84
C6
64
38
ENDCHAR
STARTCHAR d
ENCODING 100
SWIDTH 523 0
DWIDTH 8 0
BBX 8 15 1 1
BITMAP
06
1E
06
06
06
04
04
04
04
7C
C4
84
84
C6
7F
ENDCHAR
STARTCHAR e
ENCODING 101
SWIDTH 434 0
DWIDTH 7 0
BBX 6 9 0 1
BITMAP
3C
64
C4
CC
F8
C4
C4
64
3C
ENDCHAR
STARTCHAR f
ENCODING 102
SWIDTH 299 0
DWIDTH 5 0
BBX 8 21 0 -3
BITMAP
0E
11
11
27
26
20
20
FC
30
20
30
30
30
30
30
30
30
30
30
3C
C0
ENDCHAR
STARTCHAR g
ENCODING 103
SWIDTH 567 0
DWIDTH 9 0
BBX 10 16 0 -6
BITMAP
0180
02C0
3CC0
7200
6300
6300
6200
3C00
2000
1E00
2380
4180
C180
C180
6100
3E00
ENDCHAR
STARTCHAR h
ENCODING 104
SWIDTH 566 0
DWIDTH 9 0
BBX 10 17 -1 0
BITMAP
1800
3000
F000
1000
1000
1000
1000
1000
1000
1000
3700
3B00
3100
3100
3100
3100
FBC0
ENDCHAR
STARTCHAR i
ENCODING 105
SWIDTH 301 0
DWIDTH 5 0
BBX 4 11 1 1
BITMAP
60
60
20
E0
60
60
60
60
60
60
F0
ENDCHAR
STARTCHAR j
ENCODING 106
SWIDTH 367 0
DWIDTH 6 0
BBX 7 18 -2 -8
BITMAP
0C
0C
00
3E
0E
06
06
02
02
02
02
02
62
F2
C2
84
8C
78
ENDCHAR
STARTCHAR k
ENCODING 107
SWIDTH 567 0
DWIDTH 9 0
BBX 10 18 -1 -2
BITMAP
1000
F000
1000
1000
1000
1000
1000
1400
1380
1200
1400
1C00
1480
1E40
1B40
19C0
1800
7E00
ENDCHAR
STARTCHAR l
ENCODING 108
SWIDTH 354 0
DWIDTH 6 0
BBX 6 15 0 0
BITMAP
10
30
70
B0
30
30
30
10
10
10
10
10
10
18
7C
ENDCHAR
STARTCHAR m
ENCODING 109
SWIDTH 708 0
DWIDTH 11 0
BBX 11 7 0 1
BITMAP
2000
EDC0
3640
2640
2E40
70C0
0820
ENDCHAR
STARTCHAR n
ENCODING 110
SWIDTH 584 0
DWIDTH 9 0
BBX 9 10 0 0
BITMAP
2000
6700
BB00
3180
3180
3180
3100
1100
1700
7880
ENDCHAR
STARTCHAR o
ENCODING 111
SWIDTH 503 0
DWIDTH 8 0
BBX 8 8 0 1
BITMAP
3C
66
C2
C3
C3
C2
66
3C
ENDCHAR
STARTCHAR p
ENCODING 112
SWIDTH 509 0
DWIDTH 8 0
BBX 8 15 0 -6
BITMAP
20
EE
33
23
23
23
32
3C
20
20
20
30
30
30
F8
ENDCHAR
STARTCHAR q
ENCODING 113
SWIDTH 505 0
DWIDTH 8 0
BBX 8 15 0 -7
BITMAP
7F
44
C4
C4
C4
7C
04
04
04
04
04
04
04
1E
03
ENDCHAR
STARTCHAR r
ENCODING 114
SWIDTH 414 0
DWIDTH 7 0
BBX 7 11 0 0
BITMAP
0E
32
F6
70
20
20
30
30
30
38
C0
ENDCHAR
STARTCHAR s
ENCODING 115
SWIDTH 482 0
DWIDTH 8 0
BBX 8 13 0 -2
BITMAP
02
1E
32
22
34
18
0C
06
22
43
C3
26
1C
ENDCHAR
STARTCHAR t
ENCODING 116
SWIDTH 434 0
DWIDTH 7 0
BBX 7 13 0 0
BITMAP
08
10
30
FC
30
60
60
60
60
64
62
24
3C
ENDCHAR
STARTCHAR u
ENCODING 117
SWIDTH 744 0
DWIDTH 12 0
BBX 12 9 0 0
BITMAP
0380
2080
E080
2080
3080
3080
31F0
1A00
0C00
ENDCHAR
STARTCHAR v
ENCODING 118
SWIDTH 600 0
DWIDTH 10 0
BBX 10 10 0 0
BITMAP
1000
7000
B3C0
3100
1900
1A00
0E00
0E00
0400
0400
ENDCHAR
STARTCHAR w
ENCODING 119
SWIDTH 745 0
DWIDTH 12 0
BBX 12 8 0 0
BITMAP
1070
3220
F340
3740
35C0
1980
1880
1000
ENDCHAR
STARTCHAR x
ENCODING 120
SWIDTH 548 0
DWIDTH 9 0
BBX 9 10 0 0
BITMAP
0800
F000
3780
1A00
1C00
0C00
0C00
3600
7700
0800
ENDCHAR
STARTCHAR y
ENCODING 121
SWIDTH 659 0
DWIDTH 11 0
BBX 10 15 1 -7
BITMAP
1000
67C0
E180
6180
6180
6180
3300
1D00
0100
0100
0100
3200
7200
4400
3800
ENDCHAR
STARTCHAR z
ENCODING 122
SWIDTH 460 0
DWIDTH 7 0
BBX 7 9 0 1
BITMAP
40
FC
8C
88
18
10
32
62
FE
ENDCHAR
STARTCHAR braceleft
ENCODING 123
SWIDTH 460 0
DWIDTH 7 0
BBX 7 20 0 -5
BITMAP
0E
18
10
10
18
18
18
18
38
E0
20
10
18
18
18
18
18
1A
1A
0E
ENDCHAR
STARTCHAR bar
ENCODING 124
SWIDTH 368 0
DWIDTH 6 0
BBX 1 17 3 -3
BITMAP
80
80
80
80
80
80
80
80
80
80
80
80
80
80
80
80
80
ENDCHAR
STARTCHAR braceright
ENCODING 125
SWIDTH 476 0
DWIDTH 8 0
BBX 7 17 0 -4
BITMAP
78
98
1C
1C
08
0C
06
04
04
04
06
02
02
02
02
04
1C
ENDCHAR
STARTCHAR asciitilde
ENCODING 126
SWIDTH 733 0
DWIDTH 12 0
BBX 10 3 1 3
BITMAP
0040
7880
8F00
ENDCHAR
STARTCHAR nonbreakingspace
ENCODING 160
SWIDTH 270 0
DWIDTH 4 0
BBX 1 1 0 0
BITMAP
00
ENDCHAR
STARTCHAR exclamdown
ENCODING 161
SWIDTH 247 0
DWIDTH 4 0
BBX 2 17 1 -2
BITMAP
C0
C0
00
00
80
40
40
40
40
40
40
C0
C0
C0
C0
C0
C0
ENDCHAR
STARTCHAR cent
ENCODING 162
SWIDTH 799 0
DWIDTH 13 0
BBX 7 14 3 -4
BITMAP
20
20
3C
62
52
D6
D0
D0
CA
6A
3C
08
04
04
ENDCHAR
STARTCHAR sterling
ENCODING 163
SWIDTH 799 0
DWIDTH 13 0
BBX 9 14 2 -2
BITMAP
1E00
3300
2300
6700
6600
3000
3400
F800
1800
1800
0800
7880
8C80
7780
ENDCHAR
STARTCHAR currency
ENCODING 164
SWIDTH 732 0
DWIDTH 12 0
BBX 10 11 1 1
BITMAP
0200
0200
BE00
4300
8100
8100
8100
C200
7E00
4180
C0C0
ENDCHAR
STARTCHAR yen
ENCODING 165
SWIDTH 799 0
DWIDTH 13 0
BBX 12 17 0 -2
BITMAP
0400
F830
38E0
1C40
0C80
0E80
0700
0700
0300
1FF0
03C0
1F00
0300
0300
0300
07C0
1800
ENDCHAR
STARTCHAR brokenbar
ENCODING 166
SWIDTH 341 0
DWIDTH 5 0
BBX 1 18 3 -4
BITMAP
80
80
80
80
80
80
80
00
80
80
80
80
80
80
80
80
80
80
ENDCHAR
STARTCHAR section
ENCODING 167
SWIDTH 546 0
DWIDTH 9 0
BBX 7 18 1 -5
BITMAP
3C
66
46
66
60
38
5C
8E
C2
E2
72
1C
0C
06
02
22
34
38
ENDCHAR
STARTCHAR dieresis
ENCODING 168
SWIDTH 393 0
DWIDTH 6 0
BBX 5 2 1 11
BITMAP
D8
D8
ENDCHAR
STARTCHAR copyright
ENCODING 169
SWIDTH 1023 0
DWIDTH 16 0
BBX 15 15 1 -2
BITMAP
07E0
1830
200C
4104
4F02
8902
9902
9802
9882
8882
8704
4004
6008
3030
0FC0
ENDCHAR
STARTCHAR ordfeminine
ENCODING 170
SWIDTH 558 0
DWIDTH 9 0
BBX 7 8 1 5
BITMAP
70
90
98
C8
78
CA
9A
EE
ENDCHAR
STARTCHAR guillemotleft
ENCODING 171
SWIDTH 608 0
DWIDTH 10 0
BBX 8 14 1 -4
BITMAP
01
0A
0A
0A
12
64
EE
E6
73
33
19
09
04
04
ENDCHAR
STARTCHAR logicalnot
ENCODING 172
SWIDTH 616 0
DWIDTH 10 0
BBX 8 4 1 3
BITMAP
FF
01
01
01
ENDCHAR
STARTCHAR uni00AD
ENCODING 173
SWIDTH 436 0
DWIDTH 7 0
BBX 5 1 1 3
BITMAP
F8
ENDCHAR
STARTCHAR registered
ENCODING 174
SWIDTH 1048 0
DWIDTH 17 0
BBX 15 15 1 -4
BITMAP
07E0
1830
2008
5FC4
44C6
8442
84C2
8782
8592
8692
DF74
4004
2008
1830
07E0
ENDCHAR
STARTCHAR macron
ENCODING 175
SWIDTH 382 0
DWIDTH 6 0
BBX 4 1 1 13
BITMAP
F0
ENDCHAR
STARTCHAR degree
ENCODING 176
SWIDTH 346 0
DWIDTH 6 0
BBX 4 4 1 11
BITMAP
60
90
90
60
ENDCHAR
STARTCHAR plusminus
ENCODING 177
SWIDTH 580 0
DWIDTH 9 0
BBX 8 6 1 2
BITMAP
08
08
7F
08
08
FE
ENDCHAR
STARTCHAR twosuperior
ENCODING 178
SWIDTH 365 0
DWIDTH 6 0
BBX 5 9 1 5
BITMAP
70
90
18
10
20
40
D8
30
20
ENDCHAR
STARTCHAR threesuperior
ENCODING 179
SWIDTH 371 0
DWIDTH 6 0
BBX 6 8 0 6
BITMAP
70
A0
20
18
88
8C
88
70
ENDCHAR
STARTCHAR acute
ENCODING 180
SWIDTH 234 0
DWIDTH 4 0
BBX 2 3 1 12
BITMAP
40
80
80
ENDCHAR
STARTCHAR mu
ENCODING 181
SWIDTH 634 0
DWIDTH 10 0
BBX 9 14 1 -6
BITMAP
8000
8600
8600
8600
C680
CA80
FA80
C180
C000
C000
C000
C000
C000
C000
ENDCHAR
STARTCHAR paragraph
ENCODING 182
SWIDTH 707 0
DWIDTH 11 0
BBX 11 19 0 -6
BITMAP
00C0
3F80
F900
F900
F900
F100
F100
3100
1100
1100
1900
1900
1980
1980
1980
19E0
1800
3800
C000
ENDCHAR
STARTCHAR periodcentered
ENCODING 183
SWIDTH 238 0
DWIDTH 4 0
BBX 2 3 1 4
BITMAP
C0
C0
C0
ENDCHAR
STARTCHAR cedilla
ENCODING 184
SWIDTH 332 0
DWIDTH 5 0
BBX 4 5 1 -4
BITMAP
40
20
70
90
60
ENDCHAR
STARTCHAR onesuperior
ENCODING 185
SWIDTH 336 0
DWIDTH 5 0
BBX 4 7 1 7
BITMAP
20
20
E0
20
20
E0
30
ENDCHAR
STARTCHAR ordmasculine
ENCODING 186
SWIDTH 503 0
DWIDTH 8 0
BBX 7 7 1 5
BITMAP
78
8C
86
82
82
42
3C
ENDCHAR
STARTCHAR guillemotright
ENCODING 187
SWIDTH 778 0
DWIDTH 12 0
BBX 11 14 1 -4
BITMAP
0800
8800
8400
4200
7180
1EE0
0DC0
1300
2200
2400
4400
8800
8800
0800
ENDCHAR
STARTCHAR onequarter
ENCODING 188
SWIDTH 876 0
DWIDTH 14 0
BBX 12 15 1 0
BITMAP
0020
2040
2040
E080
2100
2100
E280
3480
0880
0980
12A0
24E0
43E0
4440
81F0
ENDCHAR
STARTCHAR onehalf
ENCODING 189
SWIDTH 762 0
DWIDTH 12 0
BBX 11 16 1 -1
BITMAP
0020
2040
2040
E080
2100
2100
E200
34C0
0B60
0860
1040
20C0
4100
4320
80C0
0080
ENDCHAR
STARTCHAR threequarters
ENCODING 190
SWIDTH 922 0
DWIDTH 15 0
BBX 14 15 0 0
BITMAP
0008
7010
A010
2020
1840
8880
8CA0
8920
7260
02A0
04A8
0928
11F8
1030
207C
ENDCHAR
STARTCHAR questiondown
ENCODING 191
SWIDTH 571 0
DWIDTH 9 0
BBX 8 15 0 -3
BITMAP
1C
1C
1C
00
08
08
08
10
37
67
E7
E1
E1
63
3C
ENDCHAR
STARTCHAR Agrave
ENCODING 192
SWIDTH 784 0
DWIDTH 13 0
BBX 13 19 0 -2
BITMAP
1000
1800
0400
0000
0200
1E00
0700
0B00
0B00
0980
1180
1F80
11C0
20C0
20C0
E0E0
1060
0078
0180
ENDCHAR
STARTCHAR Aacute
ENCODING 193
SWIDTH 784 0
DWIDTH 13 0
BBX 13 19 0 -2
BITMAP
0200
0200
0400
0000
0200
1E00
0700
0B00
0B00
0980
1180
1F80
11C0
20C0
20C0
E0E0
1060
0078
0180
ENDCHAR
STARTCHAR Acircumflex
ENCODING 194
SWIDTH 784 0
DWIDTH 13 0
BBX 13 19 0 -2
BITMAP
0200
0700
1980
0000
0200
1E00
0700
0B00
0B00
0980
1180
1F80
11C0
20C0
20C0
E0E0
1060
0078
0180
ENDCHAR
STARTCHAR Atilde
ENCODING 195
SWIDTH 784 0
DWIDTH 13 0
BBX 13 19 0 -2
BITMAP
0800
3500
0300
0000
0200
1E00
0700
0B00
0B00
0980
1180
1F80
11C0
20C0
20C0
E0E0
1060
0078
0180
ENDCHAR
STARTCHAR Adieresis
ENCODING 196
SWIDTH 784 0
DWIDTH 13 0
BBX 13 18 0 -2
BITMAP
0D80
0D80
0000
0200
1E00
0700
0B00
0B00
0980
1180
1F80
11C0
20C0
20C0
E0E0
1060
0078
0180
ENDCHAR
STARTCHAR Aring
ENCODING 197
SWIDTH 784 0
DWIDTH 13 0
BBX 13 20 0 -2
BITMAP
0700
0900
0900
0700
0000
0200
1E00
0700
0B00
0B00
0980
1180
1F80
11C0
20C0
20C0
E0E0
1060
0078
0180
ENDCHAR
STARTCHAR AE
ENCODING 198
SWIDTH 1172 0
DWIDTH 19 0
BBX 19 16 0 -3
BITMAP
000300
001F00
03F100
00A200
00A000
013200
013200
023E00
023240
03F240
043040
043860
0838E0
083F00
103000
FCC000
ENDCHAR
STARTCHAR Ccedilla
ENCODING 199
SWIDTH 742 0
DWIDTH 12 0
BBX 12 20 0 -7
BITMAP
0040
0040
0FC0
3060
6020
6020
E000
C000
C000
E010
E010
6020
7020
3840
0F80
0200
0300
0100
0900
0700
ENDCHAR
STARTCHAR Egrave
ENCODING 200
SWIDTH 557 0
DWIDTH 9 0
BBX 9 18 0 -1
BITMAP
2000
3000
1000
0800
0700
F900
7100
3000
3000
3400
3C00
3400
3400
3000
3000
3080
3080
FF80
ENDCHAR
STARTCHAR Eacute
ENCODING 201
SWIDTH 557 0
DWIDTH 9 0
BBX 9 18 0 -1
BITMAP
0400
0400
0800
0000
0700
F900
7100
3000
3000
3400
3C00
3400
3400
3000
3000
3080
3080
FF80
ENDCHAR
STARTCHAR Ecircumflex
ENCODING 202
SWIDTH 557 0
DWIDTH 9 0
BBX 9 18 0 -1
BITMAP
0800
1400
2300
4000
0700
F900
7100
3000
3000
3400
3C00
3400
3400
3000
3000
3080
3080
FF80
ENDCHAR
STARTCHAR Edieresis
ENCODING 203
SWIDTH 557 0
DWIDTH 9 0
BBX 9 17 0 -1
BITMAP
3600
3600
0000
0700
F900
7100
3000
3000
3400
3C00
3400
3400
3000
3000
3080
3080
FF80
ENDCHAR
STARTCHAR Igrave
ENCODING 204
SWIDTH 438 0
DWIDTH 7 0
BBX 9 20 -1 -3
BITMAP
1000
1800
0400
0000
FF80
3C00
1800
1800
1800
1800
1800
1800
1000
1000
1000
1000
1000
1000
3C00
C000
ENDCHAR
STARTCHAR Iacute
ENCODING 205
SWIDTH 438 0
DWIDTH 7 0
BBX 9 20 -1 -3
BITMAP
0200
0200
0400
0000
FF80
3C00
1800
1800
1800
1800
1800
1800
1000
1000
1000
1000
1000
1000
3C00
C000
ENDCHAR
STARTCHAR Icircumflex
ENCODING 206
SWIDTH 438 0
DWIDTH 7 0
BBX 9 21 -1 -3
BITMAP
0C00
0E00
3300
0000
0000
FF80
3C00
1800
1800
1800
1800
1800
1800
1000
1000
1000
1000
1000
1000
3C00
C000
ENDCHAR
STARTCHAR Idieresis
ENCODING 207
SWIDTH 438 0
DWIDTH 7 0
BBX 9 19 -1 -3
BITMAP
1200
1B00
0000
FF80
3C00
1800
1800
1800
1800
1800
1800
1000
1000
1000
1000
1000
1000
3C00
C000
ENDCHAR
STARTCHAR Eth
ENCODING 208
SWIDTH 730 0
DWIDTH 12 0
BBX 12 13 0 -4
BITMAP
7F80
18E0
1870
1870
1870
7C70
1870
1870
1860
19C0
3F00
2000
C000
ENDCHAR
STARTCHAR Ntilde
ENCODING 209
SWIDTH 799 0
DWIDTH 13 0
BBX 13 20 0 -4
BITMAP
0200
0D40
00C0
0000
F0F8
3820
3C20
2E20
2720
27C0
23C0
21C0
20C0
2040
2040
2000
2000
6000
F000
0800
ENDCHAR
STARTCHAR Ograve
ENCODING 210
SWIDTH 747 0
DWIDTH 12 0
BBX 12 17 0 0
BITMAP
1000
0800
0400
0000
0000
1F00
31C0
60E0
C060
C070
C070
C070
C070
E060
6060
30C0
1F80
ENDCHAR
STARTCHAR Oacute
ENCODING 211
SWIDTH 747 0
DWIDTH 12 0
BBX 12 16 0 0
BITMAP
0200
0200
0400
0000
1F00
31C0
60E0
C060
C070
C070
C070
C070
E060
6060
30C0
1F80
ENDCHAR
STARTCHAR Ocircumflex
ENCODING 212
SWIDTH 747 0
DWIDTH 12 0
BBX 12 16 0 0
BITMAP
0400
0A00
1180
0000
1F00
31C0
60E0
C060
C070
C070
C070
C070
E060
6060
30C0
1F80
ENDCHAR
STARTCHAR Otilde
ENCODING 213
SWIDTH 747 0
DWIDTH 12 0
BBX 12 16 0 0
BITMAP
0C00
1680
0300
0000
1F00
31C0
60E0
C060
C070
C070
C070
C070
E060
6060
30C0
1F80
ENDCHAR
STARTCHAR Odieresis
ENCODING 214
SWIDTH 747 0
DWIDTH 12 0
BBX 12 16 0 0
BITMAP
0D80
0D80
0000
0000
1F00
31C0
60E0
C060
C070
C070
C070
C070
E060
6060
30C0
1F80
ENDCHAR
STARTCHAR multiply
ENCODING 215
SWIDTH 541 0
DWIDTH 9 0
BBX 7 9 1 0
BITMAP
06
04
48
30
30
2C
40
80
80
ENDCHAR
STARTCHAR Oslash
ENCODING 216
SWIDTH 747 0
DWIDTH 12 0
BBX 12 15 0 -1
BITMAP
0010
0020
1FA0
30C0
6060
C0F0
C130
C230
C430
C830
F030
7060
30C0
5F80
4000
ENDCHAR
STARTCHAR Ugrave
ENCODING 217
SWIDTH 690 0
DWIDTH 11 0
BBX 12 16 0 1
BITMAP
0C00
0600
0200
0000
0200
1C00
F800
3BF0
30C0
3040
3040
3040
3040
1880
1880
0F00
ENDCHAR
STARTCHAR Uacute
ENCODING 218
SWIDTH 690 0
DWIDTH 11 0
BBX 12 14 0 1
BITMAP
0040
0040
0280
1C00
F800
3BF0
30C0
3040
3040
3040
3040
1880
1880
0F00
ENDCHAR
STARTCHAR Ucircumflex
ENCODING 219
SWIDTH 690 0
DWIDTH 11 0
BBX 12 15 0 1
BITMAP
0200
0580
08C0
0200
1C00
F800
3BF0
30C0
3040
3040
3040
3040
1880
1880
0F00
ENDCHAR
STARTCHAR Udieresis
ENCODING 220
SWIDTH 690 0
DWIDTH 11 0
BBX 12 15 0 1
BITMAP
0480
06C0
0000
0200
1C00
F800
3BF0
30C0
3040
3040
3040
3040
1880
1880
0F00
ENDCHAR
STARTCHAR Yacute
ENCODING 221
SWIDTH 796 0
DWIDTH 13 0
BBX 14 19 0 -2
BITMAP
0040
0040
0080
0800
F040
303C
1820
0C40
0E80
0700
0300
0300
0300
0300
0300
0300
0300
1F80
0080
ENDCHAR
STARTCHAR Thorn
ENCODING 222
SWIDTH 479 0
DWIDTH 8 0
BBX 7 16 1 -1
BITMAP
F0
60
40
7C
46
46
46
46
7C
40
40
40
40
40
60
F0
ENDCHAR
STARTCHAR germandbls
ENCODING 223
SWIDTH 591 0
DWIDTH 9 0
BBX 9 17 0 -2
BITMAP
7000
8800
8C00
8C00
8800
8800
9000
FC00
4700
4380
4180
6180
6080
6080
3C80
7F00
8000
ENDCHAR
STARTCHAR agrave
ENCODING 224
SWIDTH 527 0
DWIDTH 8 0
BBX 9 15 0 -1
BITMAP
4000
6000
1000
0000
3800
4C00
4C00
6400
0400
7E00
C600
C600
C680
7E80
0300
ENDCHAR
STARTCHAR aacute
ENCODING 225
SWIDTH 527 0
DWIDTH 8 0
BBX 9 15 0 -1
BITMAP
0400
0800
1000
0000
3800
4C00
4C00
6400
0400
7E00
C600
C600
C680
7E80
0300
ENDCHAR
STARTCHAR acircumflex
ENCODING 226
SWIDTH 527 0
DWIDTH 8 0
BBX 9 15 0 -1
BITMAP
1000
2C00
4600
0000
3800
4C00
4C00
6400
0400
7E00
C600
C600
C680
7E80
0300
ENDCHAR
STARTCHAR atilde
ENCODING 227
SWIDTH 527 0
DWIDTH 8 0
BBX 9 14 0 -1
BITMAP
3000
5A00
0E00
3800
4C00
4C00
6400
0400
7E00
C600
C600
C680
7E80
0300
ENDCHAR
STARTCHAR adieresis
ENCODING 228
SWIDTH 527 0
DWIDTH 8 0
BBX 9 14 0 -1
BITMAP
6C00
6C00
0000
3800
4C00
4C00
6400
0400
7E00
C600
C600
C680
7E80
0300
ENDCHAR
STARTCHAR aring
ENCODING 229
SWIDTH 527 0
DWIDTH 8 0
BBX 9 16 0 -1
BITMAP
1C00
2400
2400
1C00
0000
3800
4C00
4C00
6400
0400
7E00
C600
C600
C680
7E80
0300
ENDCHAR
STARTCHAR ae
ENCODING 230
SWIDTH 700 0
DWIDTH 11 0
BBX 11 11 0 -1
BITMAP
03C0
6440
9840
D840
18C0
3F80
4820
8C20
8E20
97C0
6380
ENDCHAR
STARTCHAR ccedilla
ENCODING 231
SWIDTH 437 0
DWIDTH 7 0
BBX 7 14 0 -4
BITMAP
3C
4C
CC
80
84
84
C6
64
38
10
18
08
48
38
ENDCHAR
STARTCHAR egrave
ENCODING 232
SWIDTH 434 0
DWIDTH 7 0
BBX 6 13 0 1
BITMAP
60
20
10
00
3C
64
C4
CC
F8
C4
C4
64
3C
ENDCHAR
STARTCHAR eacute
ENCODING 233
SWIDTH 434 0
DWIDTH 7 0
BBX 6 13 0 1
BITMAP
04
08
10
00
3C
64
C4
CC
F8
C4
C4
64
3C
ENDCHAR
STARTCHAR ecircumflex
ENCODING 234
SWIDTH 434 0
DWIDTH 7 0
BBX 7 13 0 1
BITMAP
10
2C
46
00
3C
64
C4
CC
F8
C4
C4
64
3C
ENDCHAR
STARTCHAR edieresis
ENCODING 235
SWIDTH 434 0
DWIDTH 7 0
BBX 6 12 0 1
BITMAP
24
6C
00
3C
64
C4
CC
F8
C4
C4
64
3C
ENDCHAR
STARTCHAR igrave
ENCODING 236
SWIDTH 301 0
DWIDTH 5 0
BBX 5 13 0 1
BITMAP
80
C0
40
20
10
70
30
30
30
30
30
30
78
ENDCHAR
STARTCHAR iacute
ENCODING 237
SWIDTH 301 0
DWIDTH 5 0
BBX 4 13 1 1
BITMAP
20
20
40
00
20
E0
60
60
60
60
60
60
F0
ENDCHAR
STARTCHAR icircumflex
ENCODING 238
SWIDTH 301 0
DWIDTH 5 0
BBX 7 13 -1 1
BITMAP
10
38
44
82
08
38
18
18
18
18
18
18
3C
ENDCHAR
STARTCHAR idieresis
ENCODING 239
SWIDTH 301 0
DWIDTH 5 0
BBX 5 13 0 1
BITMAP
D8
D8
00
00
10
70
30
30
30
30
30
30
78
ENDCHAR
STARTCHAR eth
ENCODING 240
SWIDTH 476 0
DWIDTH 8 0
BBX 8 14 -1 -2
BITMAP
04
78
8C
12
23
03
03
1F
33
21
21
31
31
1E
ENDCHAR
STARTCHAR ntilde
ENCODING 241
SWIDTH 584 0
DWIDTH 9 0
BBX 9 13 0 0
BITMAP
0C00
1680
0300
2000
6700
BB00
3180
3180
3180
3100
1100
1700
7880
ENDCHAR
STARTCHAR ograve
ENCODING 242
SWIDTH 400 0
DWIDTH 6 0
BBX 10 13 0 3
BITMAP
00C0
00C0
0040
4040
2080
1080
0300
7C00
C800
CC00
CC00
CC00
7800
ENDCHAR
STARTCHAR oacute
ENCODING 243
SWIDTH 400 0
DWIDTH 6 0
BBX 10 13 0 3
BITMAP
00C0
00C0
0040
0440
0880
1080
0300
7C00
C800
CC00
CC00
CC00
7800
ENDCHAR
STARTCHAR ocircumflex
ENCODING 244
SWIDTH 400 0
DWIDTH 6 0
BBX 10 13 0 3
BITMAP
00C0
00C0
0040
1040
2880
4680
0300
7C00
C800
CC00
CC00
CC00
7800
ENDCHAR
STARTCHAR otilde
ENCODING 245
SWIDTH 400 0
DWIDTH 6 0
BBX 10 13 0 3
BITMAP
00C0
00C0
0040
3040
5A80
0C80
0300
7C00
C800
CC00
CC00
CC00
7800
ENDCHAR
STARTCHAR odieresis
ENCODING 246
SWIDTH 400 0
DWIDTH 6 0
BBX 10 13 0 3
BITMAP
00C0
00C0
0040
0040
6C80
6C80
0300
7C00
C800
CC00
CC00
CC00
7800
ENDCHAR
STARTCHAR divide
ENCODING 247
SWIDTH 592 0
DWIDTH 9 0
BBX 8 7 1 1
BITMAP
18
18
00
FF
00
18
18
ENDCHAR
STARTCHAR oslash
ENCODING 248
SWIDTH 396 0
DWIDTH 6 0
BBX 6 9 0 1
BITMAP
10
78
E8
AC
AC
C8
70
40
40
ENDCHAR
STARTCHAR ugrave
ENCODING 249
SWIDTH 744 0
DWIDTH 12 0
BBX 12 13 0 0
BITMAP
1000
1800
0800
0400
0380
2080
E080
2080
3080
3080
31F0
1A00
0C00
ENDCHAR
STARTCHAR uacute
ENCODING 250
SWIDTH 744 0
DWIDTH 12 0
BBX 12 13 0 0
BITMAP
0200
0200
0400
0000
0380
2080
E080
2080
3080
3080
31F0
1A00
0C00
ENDCHAR
STARTCHAR ucircumflex
ENCODING 251
SWIDTH 744 0
DWIDTH 12 0
BBX 12 13 0 0
BITMAP
0400
0E00
3300
0000
0380
2080
E080
2080
3080
3080
31F0
1A00
0C00
ENDCHAR
STARTCHAR udieresis
ENCODING 252
SWIDTH 744 0
DWIDTH 12 0
BBX 12 12 0 0
BITMAP
1B00
1B00
0000
0380
2080
E080
2080
3080
3080
31F0
1A00
0C00
ENDCHAR
STARTCHAR yacute
ENCODING 253
SWIDTH 659 0
DWIDTH 11 0
BBX 10 18 1 -7
BITMAP
0200
0400
0400
1000
67C0
E180
6180
6180
6180
3300
1D00
0100
0100
0100
3200
7200
4400
3800
ENDCHAR
STARTCHAR thorn
ENCODING 254
SWIDTH 514 0
DWIDTH 8 0
BBX 9 24 -1 -11
BITMAP
1000
E000
6000
2000
2000
2000
3E00
2300
2300
2380
2180
2380
3300
3E00
3000
3000
3000
3000
3000
3000
3000
3000
F000
0C00
ENDCHAR
STARTCHAR ydieresis
ENCODING 255
SWIDTH 659 0
DWIDTH 11 0
BBX 10 19 1 -7
BITMAP
1B00
1B00
0000
0000
1000
67C0
E180
6180
6180
6180
3300
1D00
0100
0100
0100
3200
7200
4400
3800
ENDCHAR
STARTCHAR dotlessi
ENCODING 305
SWIDTH 301 0
DWIDTH 5 0
BBX 4 9 1 1
BITMAP
20
E0
60
60
60
60
60
60
F0
ENDCHAR
STARTCHAR OE
ENCODING 338
SWIDTH 1132 0
DWIDTH 18 0
BBX 18 16 0 -3
BITMAP
000300
1F7F00
31B100
607000
C07000
C03200
C03200
C03E00
E03200
E03200
707000
38B040
1F3040
0030C0
003FC0
00C000
ENDCHAR
STARTCHAR oe
ENCODING 339
SWIDTH 798 0
DWIDTH 13 0
BBX 12 7 0 2
BITMAP
78E0
4D20
C720
C7F0
C710
6790
39E0
ENDCHAR
STARTCHAR circumflex
ENCODING 710
SWIDTH 483 0
DWIDTH 8 0
BBX 6 3 1 11
BITMAP
20
58
8C
ENDCHAR
STARTCHAR caron
ENCODING 711
SWIDTH 428 0
DWIDTH 7 0
BBX 5 4 1 11
BITMAP
98
50
60
20
ENDCHAR
STARTCHAR ring
ENCODING 730
SWIDTH 330 0
DWIDTH 5 0
BBX 4 4 1 13
BITMAP
60
90
90
60
ENDCHAR
STARTCHAR tilde
ENCODING 732
SWIDTH 433 0
DWIDTH 7 0
BBX 5 3 1 12
BITMAP
C0
A8
18
ENDCHAR
STARTCHAR mu.dup1
ENCODING 956
SWIDTH 634 0
DWIDTH 10 0
BBX 9 14 1 -6
BITMAP
8000
8600
8600
8600
C680
CA80
FA80
C180
C000
C000
C000
C000
C000
C000
ENDCHAR
STARTCHAR endash
ENCODING 8211
SWIDTH 436 0
DWIDTH 7 0
BBX 5 1 1 3
BITMAP
F8
ENDCHAR
STARTCHAR emdash
ENCODING 8212
SWIDTH 651 0
DWIDTH 10 0
BBX 9 1 1 4
BITMAP
FF80
ENDCHAR
STARTCHAR quoteleft
ENCODING 8216
SWIDTH 287 0
DWIDTH 5 0
BBX 3 5 1 8
BITMAP
20
40
C0
E0
E0
ENDCHAR
STARTCHAR quoteright
ENCODING 8217
SWIDTH 291 0
DWIDTH 5 0
BBX 3 6 1 7
BITMAP
C0
E0
E0
20
20
40
ENDCHAR
STARTCHAR quotesinglbase
ENCODING 8218
SWIDTH 272 0
DWIDTH 4 0
BBX 3 5 1 -2
BITMAP
E0
E0
60
40
40
ENDCHAR
STARTCHAR quotedblleft
ENCODING 8220
SWIDTH 445 0
DWIDTH 7 0
BBX 5 6 1 7
BITMAP
60
98
90
D8
D8
C0
ENDCHAR
STARTCHAR quotedblright
ENCODING 8221
SWIDTH 444 0
DWIDTH 7 0
BBX 6 5 0 8
BITMAP
EC
EC
64
48
50
ENDCHAR
STARTCHAR quotedblbase
ENCODING 8222
SWIDTH 482 0
DWIDTH 8 0
BBX 7 7 1 -5
BITMAP
E0
EE
EE
66
24
44
08
ENDCHAR
STARTCHAR bullet
ENCODING 8226
SWIDTH 351 0
DWIDTH 6 0
BBX 4 4 1 5
BITMAP
60
F0
F0
60
ENDCHAR
STARTCHAR guilsinglleft
ENCODING 8249
SWIDTH 465 0
DWIDTH 7 0
BBX 6 10 1 -1
BITMAP
08
10
10
20
60
E0
60
10
08
0C
ENDCHAR
STARTCHAR guilsinglright
ENCODING 8250
SWIDTH 449 0
DWIDTH 7 0
BBX 5 11 1 -2
BITMAP
80
80
40
20
38
30
60
40
80
80
80
ENDCHAR
STARTCHAR fraction
ENCODING 8260
SWIDTH 406 0
DWIDTH 7 0
BBX 10 15 -2 0
BITMAP
0040
0040
0080
0100
0100
0200
0400
0400
0800
1000
2000
2000
4000
8000
8000
ENDCHAR
STARTCHAR foursuperior
ENCODING 8308
SWIDTH 473 0
DWIDTH 8 0
BBX 7 9 0 6
BITMAP
10
10
30
50
54
94
FC
18
3E
ENDCHAR
STARTCHAR Euro
ENCODING 8364
SWIDTH 799 0
DWIDTH 13 0
BBX 14 14 0 -1
BITMAP
0004
03C8
0E38
1C10
1810
3810
3F00
7300
BC00
F020
3820
1820
0C40
0780
ENDCHAR
STARTCHAR minus
ENCODING 8722
SWIDTH 436 0
DWIDTH 7 0
BBX 5 1 1 3
BITMAP
F8
ENDCHAR
STARTCHAR f_f
ENCODING 64256
SWIDTH 467 0
DWIDTH 7 0
BBX 9 24 0 -5
BITMAP
1C00
2C00
4C00
4700
4900
5380
5300
5000
5000
5000
7C00
D000
5000
5800
5800
6800
6800
6C00
6F00
2800
3000
3000
3000
FC00
ENDCHAR
STARTCHAR .notdef
ENCODING -1
SWIDTH 270 0
DWIDTH 4 0
BBX 3 10 1 0
BITMAP
E0
A0
A0
A0
A0
A0
A0
A0
A0
E0
ENDCHAR
STARTCHAR .null
ENCODING -1
SWIDTH 0 0
DWIDTH 0 0
BBX 1 1 0 0
BITMAP
00
ENDCHAR
STARTCHAR nonmarkingreturn
ENCODING -1
SWIDTH 270 0
DWIDTH 4 0
BBX 1 1 0 0
BITMAP
00
ENDCHAR
STARTCHAR dieresis.case
ENCODING -1
SWIDTH 393 0
DWIDTH 6 0
BBX 5 2 1 12
BITMAP
D8
D8
ENDCHAR
STARTCHAR o.cmp
ENCODING -1
SWIDTH 400 0
DWIDTH 6 0
BBX 10 13 0 3
BITMAP
00C0
00C0
0040
0040
0080
0080
0300
7C00
C800
CC00
CC00
CC00
7800
ENDCHAR
STARTCHAR n_n
ENCODING -1
SWIDTH 1024 0
DWIDTH 16 0
BBX 16 11 0 -1
BITMAP
2000
E700
3B60
31AE
31B3
31A3
3123
1123
1172
7F0F
0080
ENDCHAR
STARTCHAR a_a
ENCODING -1
SWIDTH 911 0
DWIDTH 15 0
BBX 15 11 0 0
BITMAP
00F0
0190
0198
7198
9818
C9F8
0B98
7B98
CB98
CDFA
F70E
ENDCHAR
STARTCHAR t_h
ENCODING -1
SWIDTH 854 0
DWIDTH 14 0
BBX 13 21 0 -4
BITMAP
0300
1E00
0200
0200
0A00
1200
FF00
3200
3200
32F0
3318
32D8
36D8
3658
1ED8
0F18
0618
1F90
0030
00F8
0008
ENDCHAR
STARTCHAR s_s
ENCODING -1
SWIDTH 654 0
DWIDTH 10 0
BBX 10 14 0 -2
BITMAP
0640
1FC0
2640
2A40
1200
1B00
0D00
8780
9EC0
96C0
E6C0
3CC0
11C0
0F00
ENDCHAR
STARTCHAR t_t
ENCODING -1
SWIDTH 569 0
DWIDTH 9 0
BBX 9 14 0 -1
BITMAP
0C00
2D00
2E00
7C00
F800
6800
6800
6800
6D80
6480
6700
2300
3300
1E00
ENDCHAR
STARTCHAR e_e
ENCODING -1
SWIDTH 782 0
DWIDTH 13 0
BBX 12 9 0 0
BITMAP
39C0
4A20
CE20
DE20
F640
C650
6390
3F10
01E0
ENDCHAR
STARTCHAR o_o
ENCODING -1
SWIDTH 751 0
DWIDTH 12 0
BBX 16 14 0 1
BITMAP
0003
0003
0001
0001
0002
0002
380C
6570
C220
C630
C630
C660
47C0
3800
ENDCHAR
STARTCHAR l_l
ENCODING -1
SWIDTH 573 0
DWIDTH 9 0
BBX 10 15 -1 -2
BITMAP
1300
3F00
F300
3300
3300
3300
3300
3300
3300
3300
3300
3300
33C0
F400
1800
ENDCHAR
STARTCHAR z_z
ENCODING -1
SWIDTH 875 0
DWIDTH 14 0
BBX 15 11 0 -1
BITMAP
0FC0
00C0
7E80
4D80
1900
1B20
3320
27EC
6006
FF04
01F8
ENDCHAR
STARTCHAR j_j
ENCODING -1
SWIDTH 577 0
DWIDTH 9 0
BBX 11 21 -2 -10
BITMAP
0180
0D80
0C80
03C0
3EC0
0EC0
0660
0660
0260
0220
0220
0220
0220
6220
F220
C220
8420
8C20
7E40
0740
0380
ENDCHAR
STARTCHAR f_b
ENCODING -1
SWIDTH 731 0
DWIDTH 12 0
BBX 12 21 0 -3
BITMAP
0600
0900
1100
1700
3700
3100
3700
7900
B100
3100
3100
3100
3100
31E0
3130
3130
3130
33E0
3400
3C00
C000
ENDCHAR
STARTCHAR f_k
ENCODING -1
SWIDTH 708 0
DWIDTH 11 0
BBX 11 18 0 -2
BITMAP
0800
1800
7E00
2B00
2F00
4F00
4800
4C00
CBC0
4A00
4A00
4E00
4A40
4A20
4920
48E0
CC00
3F00
ENDCHAR
STARTCHAR f_h
ENCODING -1
SWIDTH 873 0
DWIDTH 14 0
BBX 14 21 0 -3
BITMAP
0E00
1900
1100
1700
3780
3100
3700
3D00
F100
3100
3100
3100
3170
3198
3118
3118
3118
331C
3720
3C80
C000
ENDCHAR
ENDFONT
